
<global>
amp_veltrack=0
</global>

<group>
amp_veltrack=0
ampeg_decay=20
ampeg_release=0.35
ampeg_sustain=0
group_label=Group_0-42
lpc_hicc1=42
lpc_locc1=0

<region>
hikey=a#3
hivel=127
lokey=a3
lovel=1
lpc=KodIQqjKD8O4gxpDSASNwhE1qsCjPbFB1Z6fQDkqbcFlMIe/f8AtQci5lME4W7NBsnOGwXXCPkFgsMvAQpWkwGgWS0Fr1mDBwqdIQeWSw8DOiou6omALQRhrWsE3q8RA
lpc_rms=-21.78
offset=6911
pitch_keycenter=A3
sample=Cor_mordent_semitone_PP_A#3.opus
tune=-47
</region>

<region>
hikey=a#4
hivel=127
lokey=a4
lovel=1
lpc=NLaHQgo9TsOE7XZDCfwCw8JCuMF63KFCoPy0wQzYAsHqE9rBO0oYQjkBpMF0jl1AaLu6QKOHWsFQa/RBVwbgwaz5Tj/ZLsq/5ErxQWbu3MGXdhjB9WU8QjpRTMK8RKFB
lpc_rms=-20.57
offset=5542
pitch_keycenter=A4
sample=Cor_mordent_semitone_PP_A#4.opus
tune=-49
</region>

<region>
hikey=c4
hivel=127
lokey=b3
lovel=1
lpc=z38fQrWI3cI1R95CiQ0LwhYfDsICbkpCbJZtwU8PEMFY1axAXP12wAc5MT9C9Gm/lUGiQPXrhsCQ0zxAdnl3QOU4JcEmNt9AJ0cBwDszhD/13LjAnpTrQLpil7++u6K/
lpc_rms=-26.49
offset=302
pitch_keycenter=B3
sample=Cor_mordent_semitone_PP_C4.opus
tune=-21
</region>

<region>
hikey=c5
hivel=127
lokey=b4
lovel=1
lpc=RADSQWVIgsKO9WlCjDhZwWsJmcH7YJVBzBRjwFGo2TybT+2+auqfvY18u8CyqB9BWemUv3cGUMF6M0hBlmGJQOp1IMFPlZm+SN/EQNwlD7/IO4rAB2QgP/DFuj8xtxI/
lpc_rms=-30.92
pitch_keycenter=B4
sample=Cor_mordent_semitone_PP_C5.opus
tune=-58
</region>

<region>
hikey=d#5
hivel=127
lokey=d#5
lovel=1
lpc=pgEoQibrz8Ktx91CAJxFwmiAAMLc5XJC6CzSwSGQ9sBnz4lBX95nwDqdq8A8SrO/dcbfQOMV/sCTuPM/f7dDQQcdhcFJBP5AtGk/QZMdqsH9fglB7Y4CQXDuTsFZbPxA
lpc_rms=-24.71
offset=936
pitch_keycenter=D#5
sample=Cor_mordent_semitone_PP_D#5.opus
tune=-15
</region>

<region>
hikey=d4
hivel=127
lokey=c#4
lovel=1
lpc=hY1pQr10KcN6eTRDnDKPwl+OF8JUrZZC990Awr5wp78TDC/Bt7uVQbHeccHyW2LAy7N7QVW9uMA32Bq/ZyvxQC6yD8EggKvAoTpZQczBLsGZFI1A+q+jQOeRA8HkIFBA
lpc_rms=-20.78
offset=578
pitch_keycenter=C#4
sample=Cor_mordent_semitone_PP_D4.opus
tune=-12
</region>

<region>
hikey=d5
hivel=127
lokey=c#5
lovel=1
lpc=RBOEQosiIsNpJBNDVT+ewWxgt8K8+apCskFMwYg83MAXrybBqVnLQUHo08HJOTRBaskbQXRa7MGH8qZBvmIgQfCTi8GpyUZAxVfDQV0IBcKlPNhAJ9DJQcbtD8LQs5tB
lpc_rms=-21.36
offset=1004
pitch_keycenter=C#5
sample=Cor_mordent_semitone_PP_D5.opus
tune=-102
</region>

<region>
hikey=e4
hivel=127
lokey=d#4
lovel=1
lpc=EjAgQkxH1sJVMsdC5t/DwUMkHcJ/GWZCX+DowUldnEBrg+1A7QaLwYVqpT4uHSlB3K6kP6I9x8ACrhvAMDNfQdPfJcH+2bI/Ux/tvsS+iz9wrIjApEKbQP2kib/4/aS9
lpc_rms=-23.65
offset=6641
pitch_keycenter=D#4
sample=Cor_mordent_semitone_PP_E4.opus
tune=-32
</region>

<region>
hikey=f#3
hivel=127
lokey=E3
lovel=1
lpc=itGHQux5RsNikWJDXrEJw8htP0IHTrvA5CULQUfCDz/Ec4DBN5hlQc53nMEIf1VBN/GEwE2hc8BaZrZBFlFPwYhXUcGOS4JB/hD1wJZqQEDlsYrANeALvzXz+UDd+YjA
lpc_rms=-21.23
offset=3100
pitch_keycenter=F3
sample=Cor_mordent_semitone_PP_F#3.opus
tune=+5
</region>

<region>
hikey=f#4
hivel=127
lokey=f4
lovel=1
lpc=YcObQt4pY8M6AYJDBO8kw0hzhELTV/HAGtwFwQEVyUHrbdPB75cMQS0xkMA9+SrBQT1WQQRFBME5drZB897CwcVjKUHp9QxB6BmpwYQPJUEAHylAd+tLwOcTiT9x07m+
lpc_rms=-18.95
offset=4535
pitch_keycenter=F4
sample=Cor_mordent_semitone_PP_F#4.opus
tune=-68
</region>

<region>
hikey=f5
hivel=127
lokey=e5
lovel=1
lpc=Bo4wQquBx8L9PL9CIt4Twt8BVMEyHJZBVQ27QGBrbcGkJcpAgioxQTNlksGqQ2JBeVG4wBOC48BEz6lBQMlHwfpnp8C5BWVBWqevwK52csCcCGW/IM/dQKC36L+DLwxA
lpc_rms=-23.92
pitch_keycenter=E5
sample=Cor_mordent_semitone_PP_F5.opus
tune=-95
</region>

<region>
hikey=g#3
hivel=127
lokey=g3
lovel=1
lpc=EatLQg2oDsOGyxdDrA+WwnQ49EDI/FVBzbS4wELT1kBMZjnBW8sPQWZgR8EcX5dBIIN2wb7SuUCFZrW/SyanPwF8lj9ERKfA176nQH24pT/R+NDAVXLwP9zfQ0BIWa2/
lpc_rms=-21.11
pitch_keycenter=G3
sample=Cor_mordent_semitone_PP_G#3.opus
tune=-100
</region>

<region>
hikey=g#4
hivel=127
lokey=g4
lovel=1
lpc=t17WQsv2e8Nto2VDCT7Zwm17gEHisS7BW/a8QeiQnEGEVSPCjpLOQQAodMAAwVdAlkrnwJovw8CQ63hBvSRhwZGp5kBzJu6/qlFwP/ONrMDXuaJAYKlaQZ2HDsLoILVB
lpc_rms=-17.43
offset=14704
pitch_keycenter=G4
sample=Cor_mordent_semitone_PP_G#4.opus
tune=-45
</region>

<region>
hikey=C#6
hivel=127
lokey=f#5
lovel=1
lpc=OXLLQnf9UsNuJkFDkAqYwpvnIMLuYIlCTnGCwUDfdkHeqBHC5iQUQvOI18FTQOlA7jqKwF3WVUF4dnJBO7BZwcB3vT8634HA7uueviE7pEAcLiPB7oa8QRPnvECTMHPB
lpc_rms=-16.01
offset=1359
pitch_keycenter=F#5
sample=Cor_mordent_semitone_PP_G5.opus
tune=-31
</region>
</group>

<group>
amp_veltrack=0
ampeg_decay=20
ampeg_release=0.35
ampeg_sustain=0
group_label=Group_43-84
lpc_hicc1=84
lpc_locc1=43

<region>
hikey=a#3
hivel=127
lokey=a3
lovel=1
lpc=AR5OQj7rGsPKDjNDq424wjYVgb8WCAdCUiElwejkE8E1tjtAqSsFP4p90sAfZoBBc5QVwdN9Sj+CCo/A0Kg4QR7fisHvgCVBSa2+QCUY9sBqNQbAcswlQUOaLsHhl4ZA
lpc_rms=-20.19
offset=5015
pitch_keycenter=A3
sample=Cor_mordent_semitone_MF_A#3.opus
tune=-51
</region>

<region>
hikey=a#4
hivel=127
lokey=a4
lovel=1
lpc=wah9QrrFRsPb5XBDc/IIw6Gf5kFJ9idAUdGJQQCPycHCJQBAjDuvQb1VEsJpYvZB70N1wFZjhsHRedxBAMrYwV0Fg0Eq0JbBANHHQW0jmcHhHKNAaezOQYtHIsI4ZotB
lpc_rms=-15.49
pitch_keycenter=A4
sample=Cor_mordent_semitone_MF_A#4.opus
tune=-50
</region>

<region>
hikey=c4
hivel=127
lokey=b3
lovel=1
lpc=S2APQurEysID3dpCh/9Bwu8COsGzSelBCKcvwVX4GMAYR7W+r3y+QLuWL8HCZcdAOFHbQJQGPcENGYZAopflQNuvBcGdFgxAC+5vv8xf2z85dFfAxCW1P+OSpEDwZoHA
lpc_rms=-22.06
offset=243
pitch_keycenter=B3
sample=Cor_mordent_semitone_MF_C4.opus
tune=-17
</region>

<region>
hikey=c5
hivel=127
lokey=b4
lovel=1
lpc=LLflQXjppcLpULtCXdsawlOM88E2WGpCUyAPwnJSBEFrjTk/s5eJwBlZXUBkwlG/qZUeQKSxBMEe6lpBxE9nwO5CWsEgcV5BqzjTv6ArNMCndV7Ak1gaQeLGCcE9P1lA
lpc_rms=-25.31
pitch_keycenter=B4
sample=Cor_mordent_semitone_MF_C5.opus
tune=-64
</region>

<region>
hikey=d#5
hivel=127
lokey=d#5
lovel=1
lpc=vTPJQRqKfsLRYXpCYTx4wY2e7cGJC/lBix3kvrOKXMHPLV1A4GtMQQztnMEcQi1Bt3SXQFtGdcGiVZJBq0PswGsM6MBEufxAmAnEQE0EScGZi12/GXdzQe1PUMGF35xA
lpc_rms=-24.26
offset=139
pitch_keycenter=D#5
sample=Cor_mordent_semitone_MF_D#5.opus
tune=-16
</region>

<region>
hikey=d4
hivel=127
lokey=c#4
lovel=1
lpc=woGBQiJlPMPKv0ND7xqPwvm298Gfz2VCThy9wQJ9HcC7LwrBzeIDQe71579glF9A6muXP5ly1MDkdpBAcsgOPzai3r5NGE/AO+74QEGfLMGN1M5Azw15P0vpTcDCgaY/
lpc_rms=-18.09
offset=13
pitch_keycenter=C#4
sample=Cor_mordent_semitone_MF_D4.opus
tune=-52
</region>

<region>
hikey=d5
hivel=127
lokey=c#5
lovel=1
lpc=mh+fQveAS8OLE0xDnu+Rwj66WMKSYpFCStaowSRy60DC3mHBbj+AQRFfP8F5aeK/nG4rQSnuasGb1RNA4GhxQdKXXsDXJw/BJzCDQaPYgMEaa0PAA9CnQT20xcE1O2RB
lpc_rms=-18.91
offset=11953
pitch_keycenter=C#5
sample=Cor_mordent_semitone_MF_D5.opus
tune=-102
</region>

<region>
hikey=e4
hivel=127
lokey=d#4
lovel=1
lpc=RqsLQg2MwMIFBcFCO7f+wfbD3MFS9SZC1T5IwQRCIsGQ3QdBRNMRQMV+a8E6OxBBgJkLQWuIjsFCcQpB1mJfQbeKs8HO/UdBMzIOQMlnCcE6Y43Ad++GQXXMPMGmzzpA
lpc_rms=-21.12
offset=8653
pitch_keycenter=D#4
sample=Cor_mordent_semitone_MF_E4.opus
tune=-27
</region>

<region>
hikey=f#3
hivel=127
lokey=E3
lovel=1
lpc=nbZqQhZ+IsOriC1DB3a0wqcg5EAD54tBLR2CQUk/ucGJLMQ/mwVoQFIj1MBqkCZBlMl4wQLul0HGvXbBt3l+QaWRi8E0nhxBy7aFPv3aK0AmlxvBPqrXQBiPB8DNOEs/
lpc_rms=-21.08
offset=8698
pitch_keycenter=F3
sample=Cor_mordent_semitone_MF_F#3.opus
tune=+4
</region>

<region>
hikey=f#4
hivel=127
lokey=f4
lovel=1
lpc=frbTQjRhmMP6HbBD9YNtw78PxUKbs4LBgbHeQQ987D8nv4PC6tdTQm1aJcEPUgO/0l4ewh9/b0IVFr7BGyDnP/XA88BVb6xBIvCFwYqQQsGtxABC3uwNwmZbv0FOJtrA
lpc_rms=-14.10
offset=6345
pitch_keycenter=F4
sample=Cor_mordent_semitone_MF_F#4.opus
tune=-97
</region>

<region>
hikey=f5
hivel=127
lokey=e5
lovel=1
lpc=MBkWQr6Xr8JTAp9C96x4waF438EZfaRBqGoEQc9LiMG3fLJAxGISQVFoIMGx1JhAoMUjQGqvQcE6LaVBix9Jwed9pr8kGLNAe2PpPz5kxsCfVJBABGf/P5HNpMC2T6FA
lpc_rms=-21.32
offset=266
pitch_keycenter=E5
sample=Cor_mordent_semitone_MF_F5.opus
tune=-90
</region>

<region>
hikey=g#3
hivel=127
lokey=g3
lovel=1
lpc=UztVQrgCGMP44ydDjn+wwnFYTUC4AhFC8+mrwdYEzz/UjH7ArunSQBIPKMFZv6NBsSKXwUVTOUCg/B5Be76awB29l8AEfJO/jJMJQXu1JMB0qQrAYIWhwEceA0HG/SXA
lpc_rms=-20.36
offset=4864
pitch_keycenter=G3
sample=Cor_mordent_semitone_MF_G#3.opus
tune=-100
</region>

<region>
hikey=g#4
hivel=127
lokey=g4
lovel=1
lpc=6vePQjIEPcNCPj5D5JTAwqmkjkFI6CdAHsWJQYC+O8CLEBDCdbAZQqrCBsHKOb3AcBESwBSi/j5Mc29BaPC/wTM39UBHIHdBfGIiwWtq1sBXYy9BPGI8QZROFcK0wKpB
lpc_rms=-18.83
offset=10791
pitch_keycenter=G4
sample=Cor_mordent_semitone_MF_G#4.opus
tune=-44
</region>

<region>
hikey=C#6
hivel=127
lokey=f#5
lovel=1
lpc=b7TQQkbQYcMfq1ZDVKakwlK1vsFoaCRC/25ZQdF128GBk2xAz+GhQas1LcG1y/498+U2wS0NykENLXBBaZPtwVWhVkEhAVXAxX4oQQd1scCyRAJAjLphQcBsB8F4YrFA
lpc_rms=-12.76
offset=1158
pitch_keycenter=F#5
sample=Cor_mordent_semitone_MF_G5.opus
tune=-35
</region>
</group>

<group>
amp_veltrack=0
ampeg_decay=20
ampeg_release=0.35
ampeg_sustain=0
group_label=Group_85-127
lpc_hicc1=127
lpc_locc1=85

<region>
hikey=a#3
hivel=127
lokey=a3
lovel=1
lpc=shMhQul+58LqPQNDNoWXwi4iiEF5gBJBDizfP3oDm8G+1aRBu9dTwGrSoMHWDO1B2e+iwX3VQMCIVIlBoF7gwDZmwcA+kcNAWTMRwDy2QEDKWmTAewxVQDkIWMB7qbs/
lpc_rms=-19.58
offset=169
pitch_keycenter=A3
sample=Cor_mordent_semitone_FF_A#3.opus
tune=-36
</region>

<region>
hikey=a#4
hivel=127
lokey=a4
lovel=1
lpc=BaR+QucnQsMWR21D2MEZwyEsU0IERj1AhNitwK5ausBMtMZAH+VPQEcKycFQtRZCJzzBwbwHIcGuuwtCF5GxwXTZO8CPaQNBkumfwI6/FkFE8IfBF7D7QXj9DsIzKW9B
lpc_rms=-13.96
offset=7899
pitch_keycenter=A4
sample=Cor_mordent_semitone_FF_A#4.opus
tune=-51
</region>

<region>
hikey=c4
hivel=127
lokey=b3
lovel=1
lpc=z2Y9QjC7DMMmph9DIpGZwlI2B8H9bS1Cnhf6wTNj/EBIpJHA7S2JQGJKzECiCfLAceUXQKM1LcErc6RBp0lzwdF3nECgELg/lBY2wD90XkChhuDAuoeLQBLPP0AN0zXA
lpc_rms=-17.95
offset=72
pitch_keycenter=B3
sample=Cor_mordent_semitone_FF_C4.opus
tune=-92
</region>

<region>
hikey=c5
hivel=127
lokey=b4
lovel=1
lpc=+drcQTh+m8Kdca5CXJkvwmecgsBWpqNBJge3wOsGpcDd9ydALfX5P+eiIsHf+oNBCOUZwWgFwcAkzERBb3c0wPruycAYEORApW0wwG78KD/eqX3AiKG2QL5Te8DfjMM/
lpc_rms=-23.82
offset=371
pitch_keycenter=B4
sample=Cor_mordent_semitone_FF_C5.opus
tune=-64
</region>

<region>
hikey=d#5
hivel=127
lokey=d#5
lovel=1
lpc=gX4cQuXAxsJDStFC4WtFwmdHFMGWrM1BqN2vwG0DacDuXE3ArPk9QSBxCMF2CozAAIGRQOqAhD7KIZxAClRCwNgAK8AudjtAe3ALQXbvmMESFSBBBsLgQIWgRsE7ouxA
lpc_rms=-18.06
offset=153
pitch_keycenter=D#5
sample=Cor_mordent_semitone_FF_D#5.opus
tune=-29
</region>

<region>
hikey=d4
hivel=127
lokey=c#4
lovel=1
lpc=JlcqQpiz+MLn9QdDpg1ywkN9FMH2+wBC5PVswf2Q78DTXKZA1mo9QEAoL8AwYZBAWW5EwMedysCAm9pA25FSQBPoCcETxqFAWoixPxuNf78Z1dfAKGQJQQ9RLMD+p9m+
lpc_rms=-16.02
offset=4981
pitch_keycenter=C#4
sample=Cor_mordent_semitone_FF_D4.opus
tune=-97
</region>

<region>
hikey=d5
hivel=127
lokey=c#5
lovel=1
lpc=wRosQgKA68JgewNDjiqFwqk7QcHVKShCv8xYwWTbAcEgIKA/y7YBQQ+5QcEy1KJAM/sHQR+9WcG00RtBDquJP/9PiMCl4azAJztJQXhGhsBc3UDBM7CoQavujcGI2+5A
lpc_rms=-19.14
offset=6313
pitch_keycenter=C#5
sample=Cor_mordent_semitone_FF_D5.opus
tune=-102
</region>

<region>
hikey=e4
hivel=127
lokey=d#4
lovel=1
lpc=k7fbQRcMl8LeAppCFoHVwd8+pMEqL/9Bogw1wV+3ycD2gtZAfRtAwAvV2b82+8lAseKFwCchB8CGKYxAfeemuIadvcBWbJFAods7QC48qsBK3bq/wqEFQSvT1cB7Tt0/
lpc_rms=-19.65
offset=314
pitch_keycenter=D#4
sample=Cor_mordent_semitone_FF_E4.opus
tune=-26
</region>

<region>
hikey=f#3
hivel=127
lokey=E3
lovel=1
lpc=pxNMQhfGEcM8ASxDOmbzwoT4ZEJUfg/BGAfBv5U6jb8jwghAzaqewIs82T+GQApAUICBwO4CAL/CL/RAa/aLv/4nzsBhmaFA0ehevz7NMsBjw9y/v8TUQP+NN8Ao5Ly9
lpc_rms=-17.51
offset=336
pitch_keycenter=F3
sample=Cor_mordent_semitone_FF_F#3.opus
tune=+6
</region>

<region>
hikey=f#4
hivel=127
lokey=f4
lovel=1
lpc=gTBDQpLVCcOGtR9DKXnnwkDHhUILbwrCpzADQqErzMFQ4idAzjm1QJ0EwT9Y8s3AND0AwDQDCUEynmi/sYfPwOOcLL8JdEdBXBQzwfT+DEBcbMhAtFISwXPVg0A04h++
lpc_rms=-15.85
offset=179
pitch_keycenter=F4
sample=Cor_mordent_semitone_FF_F#4.opus
tune=-56
</region>

<region>
hikey=f5
hivel=127
lokey=e5
lovel=1
lpc=uUszQmW238KB0NtC2CL9wfKo5cHthvFB4h0OQJJPt8HQxoFBjOVyQAM8G8HotKVAJL0CQCwLsMBKi/BA2ADKPmbUPcFQSmRBiKotwAjHwcCuFMFAQ8j2QAKYj8HUYkJB
lpc_rms=-18.12
offset=59
pitch_keycenter=E5
sample=Cor_mordent_semitone_FF_F5.opus
tune=-87
</region>

<region>
hikey=g#3
hivel=127
lokey=g3
lovel=1
lpc=GlojQqky4MIA1d9CKh8vwsZCBcFaxqBBwlWRwLsQqMAsf6u+S4o9QKIA4cBGNjlByyaRwIVSm8Cq4jBBsiUFwXsfncAZxzlBEFEywSKqB0Fysq7AsMmlQNojO8AX/Lo+
lpc_rms=-18.26
offset=6898
pitch_keycenter=G3
sample=Cor_mordent_semitone_FF_G#3.opus
tune=-87
</region>

<region>
hikey=g#4
hivel=127
lokey=g4
lovel=1
lpc=WBlfQoCVFcMVGhVDq1ibwt5FGEJq16vBvQeuQJW7B0E40aPBGDWiQVYQBcEuH+dA/RZHwaxo1UANBZY/ghlVQEz8QMEGF/1A1r5Tv8l6cUBA+HC/rdIDwXyZrkBZFvY+
lpc_rms=-16.99
offset=6928
pitch_keycenter=G4
sample=Cor_mordent_semitone_FF_G#4.opus
tune=-97
</region>

<region>
hikey=C#6
hivel=127
lokey=f#5
lovel=1
lpc=1nyBQnqCIMND7U5DpmAewzoRhEKPPfxAb0KzwY5wq0EC6oDBxfB0QTHD8sD1pY1Ab3BgwAI4x0CX7S1B+U6SwWZRmUHI4WPBi9FnQZQMzsCnJa/ACRvLQawQq8GNgTVB
lpc_rms=-10.69
offset=401
pitch_keycenter=F#5
sample=Cor_mordent_semitone_FF_G5.opus
tune=-47
</region>
</group>

<group>
amp_veltrack=0
ampeg_attack=2
ampeg_release=0.35
group_label=PP
lpc_hicc1=42
lpc_locc1=0
volume=-3

<region>
hivel=127
key=A#3
loop_end=246576
loop_mode=loop_continuous
loop_start=80153
loop_xfade=20165
lovel=0
lpc=Nhc3Qtd3/sLw8gRDPhKAwmEc+kAGN39ApyxVQVEUicEGsXFA+IJLQZTsusGhnDpBJtrUPsvSOUD8k8PAbnEbQd/xD8EI38jARIeNQR21BsFZpXbAXHksQA7Twj834Eu/
lpc_rms=-27.59
sample=Cor_sustain_PP_A#3.opus
</region>

<region>
hivel=127
key=A#4
loop_end=251900
loop_mode=loop_continuous
loop_start=81884
loop_xfade=20601
lovel=0
lpc=MCiVQorIV8O0H2dDZKnRwjkMOUHNkq/B3byOQvNVYMLQDVY/pJWwQTN8u8HEvK1Bi7SHwTA4eMB7oIlBglYxQQGGMcJK4iVCytgnwZqngMHlLI5BProeQXAs/cEut4NB
lpc_rms=-22.51
sample=Cor_sustain_PP_A#4.opus
</region>

<region>
hivel=127
key=A3
loop_end=254756
loop_mode=loop_continuous
loop_start=82813
loop_xfade=20834
lovel=0
lpc=MrRnQl7gKMMGgD9D9ALJwq7Ug0C9JcdBDxT9P0SOIsHLQDrBlz3TQak6oMEHGanAsoVBQYXdp0CXbTDB5/kNQSChB8ARhwnBI1JhQchuPsEyzQdAEKSbwKVYU0F3ycrA
lpc_rms=-26.54
sample=Cor_sustain_PP_A3.opus
</region>

<region>
hivel=127
key=A4
loop_end=269291
loop_mode=loop_continuous
loop_start=87537
loop_xfade=22023
lovel=0
lpc=oz+NQu3dOcOJiiVDifNiwhNSAkH7Ct7AUBqtQdehF8FV9ITBGiSUQUS4zMGftsVBtAc+wM/KdsGRDYNBHMP8QG5svcG0iMJAVmvEQKYnmkCyeB/B/SE6QbIBgsHuOwlB
lpc_rms=-26.91
sample=Cor_sustain_PP_A4.opus
</region>

<region>
hivel=127
key=B3
loop_end=246639
loop_mode=loop_continuous
loop_start=80174
loop_xfade=20171
lovel=0
lpc=n9BWQj0OF8OYkRhD03xUwnZUksGIP6pBtU2bPx2nOL+yRqLAQud/wCgpDsB1AsdAomNCQRDegsErYp0/ooMbQXIMGsGO+8w/v49vQF2SrcAHrF1AhB/QP9Tnkb68YM+/
lpc_rms=-27.78
sample=Cor_sustain_PP_B3.opus
</region>

<region>
hivel=127
key=B4
loop_end=267272
loop_mode=loop_continuous
loop_start=86881
loop_xfade=21858
lovel=0
lpc=yd+fQmG9SsMakC1DjNcEwmXpNcJkz8NBBXfxQXBV1sGMBDHA0EbkQRCsSsLPSwZCjY/0wKFRv8BOkie/RHSiQRrk+sCE3K7AJbTBv314ukBGeXVAzM2NwdnrGEHTYt8/
lpc_rms=-24.90
offset=14128
sample=Cor_sustain_PP_B4.opus
</region>

<region>
hivel=127
key=C#4
loop_end=255349
loop_mode=loop_continuous
loop_start=83005
loop_xfade=20883
lovel=0
lpc=G/MUQnsgzcKQe81CBVIFwsG5/MEKzjdCB2QYwWSwMMF5Xz+/1qQZQDWDJb8tnIbAvPJHQZOoDMEjIZRAHGjxvEXk+MCSCp5ALrNHQOnvQMBGFm3AHkwRQZDkD8EKQXxA
lpc_rms=-28.85
sample=Cor_sustain_PP_C#4.opus
tune=-1
</region>

<region>
hivel=127
key=C#5
loop_end=232582
loop_mode=loop_continuous
loop_start=75605
loop_xfade=19021
lovel=0
lpc=dTJRQg2Q8MJXz7RC9XwywR73+cGwMQRChMiQvmG8OMGmIcPA1q0yQUsmHMFQ8ApBlzU2QB5HH8HCj15ASLczQF8nxMABE5FA/KrMQJN4fsB0wce/QHgBQTRWtsGzpX5B
lpc_rms=-31.62
sample=Cor_sustain_PP_C#5.opus
</region>

<region>
hivel=127
key=C4
loop_end=259490
loop_mode=loop_continuous
loop_start=84351
loop_xfade=21222
lovel=0
lpc=AUZeQkQGGMNeUBlDq+aAwgTH+sBQQNBBa8ZKwXYAkUF6O8fBvxpTQeaZAcGMr44/2Y4mQTnRUcH+EfBAFKucQN6bAcFUxEi/AnolwBlRH0FAhs7Ak/C4P1zWHEBDNh7A
lpc_rms=-27.55
sample=Cor_sustain_PP_C4.opus
</region>

<region>
hivel=127
key=C5
loop_end=253878
loop_mode=loop_continuous
loop_start=82527
loop_xfade=20763
lovel=0
lpc=YxTQQYQ/cMLic01CQnFVwaXUDsHWDcZAd569QAYfTsD9MKjAMScVQd/oF8EfhlpAW8qLQKPB1cCBLHRAYwxQQP88FsA/owfA51VbvrT8gECYXo7AmofIPSdkjkAiFDnA
lpc_rms=-36.93
sample=Cor_sustain_PP_C5.opus
tune=-2
</region>

<region>
hivel=127
key=D#4
loop_end=243269
loop_mode=loop_continuous
loop_start=79078
loop_xfade=19895
lovel=0
lpc=qA0MQkwRuMIJEKlC6QKTwe+kBMKzmBZC2aY8wSmxx72o0Jk/XsViwJV5j75ZqkQ/h1YOQG4mtL/JXarAHPs2QRrfAcHQoG2/1zavQOXyH78x6E3AuZ5WQPRejMAB/RZA
lpc_rms=-31.11
sample=Cor_sustain_PP_D#4.opus
tune=-1
</region>

<region>
hivel=127
key=D#5
loop_end=246479
loop_mode=loop_continuous
loop_start=80122
loop_xfade=20157
lovel=0
lpc=i64mQgC8sMIIqYJCtnQtwAA4CMJab7NB+o/OQFCd7sD2SSG/RKSgQAlUEcCSY4vAdXgGQAoPKMB8eQtBbicPwAliTb85/MS/gS2VQGvqmMDv4m/AFjIVQV0J28AV/J1A
lpc_rms=-31.28
sample=Cor_sustain_PP_D#5.opus
tune=+2
</region>

<region>
hivel=127
key=D4
loop_end=256011
loop_mode=loop_continuous
loop_start=83221
loop_xfade=20937
lovel=0
lpc=+sMbQpBt4cLqmPlCWXdcwi1S08GQvG1CnUvXwQ1EjsA8UTXAcoU6QQ1eRsHmMpdAt4gSQXFDKcGH28tAJMyjP+9OY8G3OTZBg/lsP1OroMAkWHVARysXQPusy8CShixA
lpc_rms=-25.63
sample=Cor_sustain_PP_D4.opus
tune=-1
</region>

<region>
hivel=127
key=D5
loop_end=243460
loop_mode=loop_continuous
loop_start=79141
loop_xfade=19911
lovel=0
lpc=SBGpQpCOMsN2NAZDcIyuwV4JIsLnYpVBf7GvQU/dTkCwIQfCoYfwQfo9X8GYhqlAcKSkvzFWisH+qt1BKehnP5g2XsHXs9o8aka4QKl0mEDEWjrBi/USwKKHCEEONzlA
lpc_rms=-26.27
sample=Cor_sustain_PP_D5.opus
tune=-1
</region>

<region>
hivel=127
key=E4
loop_end=246255
loop_mode=loop_continuous
loop_start=80049
loop_xfade=20139
lovel=0
lpc=7/hIQtTPC8OZHAlDV2Ezwt6N48HKXyBCs06nP+obiMGlZBXAfDqSP2BgjD99PLzAGfUnQWpcir+y73VAv64FwFW/C8G5O51AsXyDQEX/BcFMB11AfiWAQA9pM8CL5+E9
lpc_rms=-27.68
sample=Cor_sustain_PP_E4.opus
tune=-1
</region>

<region>
hivel=127
key=E5
loop_end=245692
loop_mode=loop_continuous
loop_start=79866
loop_xfade=20093
lovel=0
lpc=iJaXQumSGcNIh+dCriF9wcO3bsKQDIRCHjCJwX17lUD6ixTBwwZeQa4HoMF3yohA2W+qQYNS48E67YhBdJT2QGKGCcH0uCpA8AuZPvb7S0BLA/zAfXiLQAAPncDGXixB
lpc_rms=-25.03
sample=Cor_sustain_PP_E5.opus
tune=-1
</region>

<region>
hikey=F#3
hivel=127
lokey=E3
loop_end=246483
loop_mode=loop_continuous
loop_start=80123
loop_xfade=20158
lovel=0
lpc=vGZaQndyE8OTTBRDcGeNwstiQEF95evAK4AgQucoB8L8RTXAFotgQQJjJcGo5h6/+VDQQKannb2nrK3A2qkpQXoCHMDSMDbB+r+HQKzi0EAX+8zAwSCav0STFkHGr7bA
lpc_rms=-28.10
pitch_keycenter=F3
sample=Cor_sustain_PP_F#3.opus
tune=-1
</region>

<region>
hivel=127
key=F#4
loop_end=242353
loop_mode=loop_continuous
loop_start=78781
loop_xfade=19820
lovel=0
lpc=3YE7QrNBCsNpaSRDgoHZwgU4LkKPPA3BgqgmQXUfz8B1PBTBeez5QNI2H79ubCXAcx2XP+Ow8z4CfM1AKdvLwOwTjsDqag9Bfde8wHGWhUAcm5rAt2OsQBXRhsDEL78/
lpc_rms=-28.11
sample=Cor_sustain_PP_F#4.opus
tune=-1
</region>

<region>
hivel=127
key=F#5
loop_end=241275
loop_mode=loop_continuous
loop_start=78430
loop_xfade=19732
lovel=0
lpc=8ovVQpPHScP/+CJDjwrewQvVf8K7gilC2ofxQaVhwcGFisnArdMTQqD2k8G909vBCik9Qn63GsIQze9BIGnsP/Ji4L2Ps75AcRwOwF+mHcHA1jVBO+8fweeQckEIFQFB
lpc_rms=-20.91
sample=Cor_sustain_PP_F#5.opus
</region>

<region>
hivel=127
key=F4
loop_end=243425
loop_mode=loop_continuous
loop_start=79129
loop_xfade=19908
lovel=0
lpc=G09SQs6KFcMlFxFDCyDxwZNWS8JTHi5CWaQFQRyh1sFkaAbADYw6QSbjRsBPACBAuj4tQT79pMG4V1ZBVIWRwFV4x8D/Iu5AXWoQQNNWqsDYPKpAz4DTP6zwN8Gl/NdA
lpc_rms=-25.69
sample=Cor_sustain_PP_F4.opus
tune=-1
</region>

<region>
hivel=127
key=F5
loop_end=233468
loop_mode=loop_continuous
loop_start=75893
loop_xfade=19093
lovel=0
lpc=VAeIQkjoC8Owr9pCe652wdW/KsKU8Q9C6cY+Qch3ssH+abJAbzYSQGyaD0DLmmLACe1TQKbyCj/jDaRAaYUTQOSimsF04M1B+JiewE60QMGYSVhB4b+eQGXju8GX06VB
lpc_rms=-26.00
sample=Cor_sustain_PP_F5.opus
tune=-2
</region>

<region>
hivel=127
key=G#3
loop_end=251041
loop_mode=loop_continuous
loop_start=81605
loop_xfade=20531
lovel=0
lpc=krFTQn4oDcPgKQpDZfBtwuGN4r+ixp9BfNYRwUeqQ0HpSLbB+6i1QQf4pMGgyHdBC0kvwfSbGEE+19jAvIdcv3fri0Au89q/9EMgQIn7nsC1oC9ARMJEQKlHhsBw+q0/
lpc_rms=-28.78
sample=Cor_sustain_PP_G#3.opus
</region>

<region>
hivel=127
key=G#4
loop_end=244943
loop_mode=loop_continuous
loop_start=79623
loop_xfade=20032
lovel=0
lpc=XLjDQkQgYMPYGj5D24HEwvTtE0LYD0nBSxGmQSsivUAIE5nBhStKQYNQHcHgmuA/kAlEwZ7aBkF3ymxBeU+mwdJykkBjGMlBseChwYaVYMDgu5VAbqyPQNfHqcHXfoZB
lpc_rms=-24.96
sample=Cor_sustain_PP_G#4.opus
</region>

<region>
hivel=127
key=G3
loop_end=254959
loop_mode=loop_continuous
loop_start=82878
loop_xfade=20851
lovel=0
lpc=pZAyQogF+cL47QpDjsKnwoyU7UFZkY7A2JhCwD7AH0GplirBlwjOQBJGEMHq9U1BHzYEwRF+wEC/eAjB+vXzQEl/RsDYs/6/HkIAwDOB5EBqKS/BMfqcQSkJjME1c7lA
lpc_rms=-29.22
sample=Cor_sustain_PP_G3.opus
tune=-1
</region>

<region>
hivel=127
key=G4
loop_end=249935
loop_mode=loop_continuous
loop_start=81245
loop_xfade=20440
lovel=0
lpc=NXC8Qnaah8NVCJRDDAoZw0xNO0HYzO1BGf+kQd6G4sHzAhLB5ZsQQjXEUsLY8u5BVTWUQOsW68HdNuJBeCXfwKNwyr90UTxBypnNwDIrAcH1NdRA7CcXwOAFeMAvCIpA
lpc_rms=-23.21
sample=Cor_sustain_PP_G4.opus
tune=-1
</region>

<region>
hikey=C#6
hivel=127
lokey=G5
loop_end=251330
loop_mode=loop_continuous
loop_start=81699
loop_xfade=20554
lovel=0
lpc=CppeQ2Gd5MNlQLVDpxaiwlGnBcMkAflCn6w5QjLok8LmvIdBkJyhQfnK1sEPB1bCws/ZQh6ng8KqlglCHF8dQSmHq8ADL8fBYkyvwKAj40G9l97Bd8dxQRm1g0LBnG/C
lpc_rms=-18.03
pitch_keycenter=G5
sample=Cor_sustain_PP_G5.opus
</region>
</group>

<group>
amp_veltrack=0
ampeg_attack=2
ampeg_release=0.35
group_label=MF
lpc_hicc1=84
lpc_locc1=43
volume=-3

<region>
hivel=127
key=A#3
loop_end=253914
loop_mode=loop_continuous
loop_start=82539
loop_xfade=20766
lovel=0
lpc=7ij0QUuunsI6Q6FCxoArwtDDMUEZ3xbASKYcQQsXB8HEsAhAf7yBP637Kr9/JRnA/ZlKQE9lkMBUyO4/C/uPQEmix8Ccf4BA2cZ6P/VsZsD3sSJAj9HIv9oBnz6BLXc+
lpc_rms=-24.65
sample=Cor_sustain_MF_A#3.opus
tune=-2
</region>

<region>
hivel=127
key=A#4
loop_end=260234
loop_mode=loop_continuous
loop_start=84593
loop_xfade=21282
lovel=0
lpc=mTaSQpYQUcOTBGVDx+gBw8K9SkKfXi/By4zTP1pdU0GCQ1PCzft5QnqkHcK0zlNBVKiGQc4yAsK9igNCzNsgwtD1I0KTFwDCyVu6QXt1ksA7+hXAL1fjwCslrUCqgAW+
lpc_rms=-15.27
sample=Cor_sustain_MF_A#4.opus
tune=-1
</region>

<region>
hivel=127
key=A3
loop_end=265662
loop_mode=loop_continuous
loop_start=86358
loop_xfade=21726
lovel=0
lpc=oxE+QtH4+8LMiAtD0HHEwod8K0KvtRZAaZqQPQpu78Do4QvAzuGeQS62OMLaiT5CogLMwS7w0EAW3BRA7j2hQEtL2cBEZD/A1br5QC55AcEZ69lALJuKvqSWoMDq0lVA
lpc_rms=-22.45
sample=Cor_sustain_MF_A3.opus
tune=-1
</region>

<region>
hivel=127
key=A4
loop_end=277452
loop_mode=loop_continuous
loop_start=90190
loop_xfade=22691
lovel=0
lpc=l0+QQnMAP8POh0xDcsbywkn60EHSWapBWifaQML7ksGbbg3B1YUIQh+vIsJtSXxBvtG5P5/O98BTHZhBWWyIwZxubEFLMKXAwh2NwFjeWsAGfpK/5EcsQQSkcMDwQMG/
lpc_rms=-17.96
offset=12061
sample=Cor_sustain_MF_A4.opus
tune=-1
</region>

<region>
hivel=127
key=B3
loop_end=265183
loop_mode=loop_continuous
loop_start=86202
loop_xfade=21687
lovel=0
lpc=1I4PQrPiucIpxsBCPmNbwlwoC0Fzo8dBs6/OwXrnEUF/iTpAZ/ptwMznpcASUHNBHdpkwRurYkBVPLpA73b9wK/od0CzrzM/7Ja1wEWbfEDH6uc/Q/JXP2N4GcBiqPu7
lpc_rms=-21.39
sample=Cor_sustain_MF_B3.opus
tune=-1
</region>

<region>
hivel=127
key=B4
loop_end=274065
loop_mode=loop_continuous
loop_start=89089
loop_xfade=22414
lovel=0
lpc=KSF5QrCaIMMzUyJDJOCYwr+VO8HmU3FCNa4+wl1AiEGjAf7AcXVKQYO/38EOOftBdVvmQPQkLsK2fCZCqm5BwccBncGtCY5BcJXHQMrgnsE6XJpBssEPwYysPL86Lf0/
lpc_rms=-16.90
offset=14003
sample=Cor_sustain_MF_B4.opus
</region>

<region>
hivel=127
key=C#4
loop_end=259481
loop_mode=loop_continuous
loop_start=84348
loop_xfade=21221
lovel=0
lpc=ZJzYQcCfjsIJM5BCngYUwkVBAUEcetBAH9qFwDfwtD8AMHrAVh1fQNsg88Cf+hNBHyLsvw1ZC8BB0gBA7kJ5v+fHir8w37A/V25kv0nfmD+KXaY/Z8UVwPmxqb/D5gJA
lpc_rms=-24.66
sample=Cor_sustain_MF_C#4.opus
</region>

<region>
hivel=127
key=C#5
loop_end=252149
loop_mode=loop_continuous
loop_start=81965
loop_xfade=20621
lovel=0
lpc=O237QeverMKTk7pCSLQdwpgbeMHaW/NBbL0vwWhor8DJDshAqsP4vgYUbsDkVhxAq99YQK26HcE33RRBSN9LQC+bYMGtAR9BpvSQP1XPmsDq5GM/yTQyQZgLlsE4QhJB
lpc_rms=-24.38
sample=Cor_sustain_MF_C#5.opus
</region>

<region>
hivel=127
key=C4
loop_end=259443
loop_mode=loop_continuous
loop_start=84336
loop_xfade=21218
lovel=0
lpc=y432QdYxrcIh4MhCdB6AwuxYXEEOJppBRmJYwVWRh8AGtzBBuSMIwXx6Z8AbQ2hB1liDwTrfPUHI8afAnG2LPm7Sh0De6d7AwheiQBna7b7bRW3AmupWQMsAEr6b1RW/
lpc_rms=-22.40
sample=Cor_sustain_MF_C4.opus
tune=-1
</region>

<region>
hivel=127
key=C5
loop_end=267894
loop_mode=loop_continuous
loop_start=87083
loop_xfade=21909
lovel=0
lpc=LejBQR6niMK036JCIvM/wgzYn0DckqxAKQRXQQUrh8ERFGnApR65QaolsMGSKIxAaBciQX10UcG2dgtBWMYRwN8iQcCwx9NA/VYcwKUTmsAiWJFAH43yP6/Ew8BmHl5A
lpc_rms=-26.39
sample=Cor_sustain_MF_C5.opus
</region>

<region>
hivel=127
key=D#4
loop_end=264901
loop_mode=loop_continuous
loop_start=86110
loop_xfade=21664
lovel=0
lpc=zoPeQcNykcJu/5dCwMskwpAymkAeTDlBIoKIwODPOcCcCFVAQZ6PvjXvscCrCX5AhSU3QJpDDcDFcpLAtUsCQWM6j8AAFMm/y94bQOZNXj/3GWvAuPJcQPxYtr/+Z1s+
lpc_rms=-22.90
sample=Cor_sustain_MF_D#4.opus
tune=-1
</region>

<region>
hivel=127
key=D#5
loop_end=261296
loop_mode=loop_continuous
loop_start=84938
loop_xfade=21369
lovel=0
lpc=5zD6QdSCmcKisJ9CfrwewhFJhL94sTxBGOVdvz0RXMCcg4JA/GQUwIPcyT8Wt77AANwhQRVnA8HgLx+/yigRQU3w6cD0pLlAl8VswE++4T1q94M/xOBSQG90GcGqzPVA
lpc_rms=-25.22
sample=Cor_sustain_MF_D#5.opus
tune=-2
</region>

<region>
hivel=127
key=D4
loop_end=254314
loop_mode=loop_continuous
loop_start=82669
loop_xfade=20798
lovel=0
lpc=8n0YQrChzcKR+NVCnQBqwiutZkE6l2tBA9ZRwSqyFcBfFPVAsF37wBqXrT5ExktAGkCzQHTU7sBjditAidOCv9eOuT87+0XAIzevPyY1RD+o2ak/ynQHwO8+sD8ZPV+/
lpc_rms=-20.96
sample=Cor_sustain_MF_D4.opus
tune=-1
</region>

<region>
hivel=127
key=D5
loop_end=247695
loop_mode=loop_continuous
loop_start=80517
loop_xfade=20257
lovel=0
lpc=rrnYQfGDjMJbgpNCDLUEwpZvaMEGOwRC9TxSwV0218DrUgRB0kkeQCM+KsEsP/0/IFRFQRQvjcHBlvlAJw8iQe0fUcGpLpFAmJqgP6KXRz/NmGTAsj4fPoeNIz8sn64/
lpc_rms=-26.51
sample=Cor_sustain_MF_D5.opus
</region>

<region>
hivel=127
key=E4
loop_end=261424
loop_mode=loop_continuous
loop_start=84980
loop_xfade=21380
lovel=0
lpc=BVw+QkI4BMMJ7w1D4H6hwuCvlkGRlN5BpgfQwTOCTEAsTIhANCKJwXdchEFMSjDAfUgyv6ZDFkFrQRzBCU9HwBzW4EBeQkXBN62BQbDh4MB0Vdk+4xxjQKBxzsB/mEFA
lpc_rms=-19.15
sample=Cor_sustain_MF_E4.opus
tune=-2
</region>

<region>
hivel=127
key=E5
loop_end=262953
loop_mode=loop_continuous
loop_start=85477
loop_xfade=21505
lovel=0
lpc=22UwQlk24MKL4wFDnN6owl2kjkGiNtJBJB0IwprA2kGgkJHAimOKwXT2r0FZP4/BgrdmQcQ43MA3RtTAXOlzQeaRa8CRVV3Av+lZwM9egUF+IKbBip5WQQHZ8MAeHMtA
lpc_rms=-19.28
sample=Cor_sustain_MF_E5.opus
tune=-1
</region>

<region>
hikey=F#3
hivel=127
lokey=E3
loop_end=253914
loop_mode=loop_continuous
loop_start=82539
loop_xfade=20766
lovel=0
lpc=WJk4QsRO78KAxgBDBl+mwjKdg0GzMp1BZkIAQfgeEMJvoxpCfVrtwLMRmcHNyLBA79okQVj1wcH9lJJB7CITQLjHAcHj7XVAy/YXQdRqqcBq3T7BIyWGQde1e8GhOexA
lpc_rms=-24.02
pitch_keycenter=F3
sample=Cor_sustain_MF_F#3.opus
tune=-1
</region>

<region>
hivel=127
key=F#4
loop_end=271166
loop_mode=loop_continuous
loop_start=88147
loop_xfade=22176
lovel=0
lpc=5iT7QWTfssJ9tt5CXem2wjYYZUJT9PvBRij2QXpY/MFLtplBbVtQwOJquMBYlAVA1BAKQDCYfr97vYe+YAUqQMp4TcA2CZFAOTsWwXabGkFJ01DAyEc2wN5nPUAVyvi+
lpc_rms=-22.96
sample=Cor_sustain_MF_F#4.opus
tune=-1
</region>

<region>
hivel=127
key=F#5
loop_end=251326
loop_mode=loop_continuous
loop_start=81697
loop_xfade=20554
lovel=0
lpc=tQ/DQViiL8K7ai1C2aW4wRURtT/i1fBAuVr3wGfVWUHqROzAN5RcQBICnz95qEjApfdkQGzk2sD8WCJBC0t+wHqXtUASQpC/qjucvUu8fb/z/Lo/ftMRv96gw782bOFA
lpc_rms=-27.31
sample=Cor_sustain_MF_F#5.opus
</region>

<region>
hivel=127
key=F4
loop_end=264070
loop_mode=loop_continuous
loop_start=85840
loop_xfade=21596
lovel=0
lpc=6zbwQUOQscJGocpCJgRWwncmGkFBlbFAP7jbvzY+NMGRjZFB/DR1wZTpJ0Hyh3PA2o/Fv2KZ4j+9eALBbbSdQRlCnMFQixBBsdp0v+j2ecA2AFpAmty/QDH6KcFDO5FA
lpc_rms=-22.50
sample=Cor_sustain_MF_F4.opus
</region>

<region>
hivel=127
key=F5
loop_end=254194
loop_mode=loop_continuous
loop_start=82630
loop_xfade=20788
lovel=0
lpc=f2yQQfPJIcJa8x5CNepawflUDsETPDRBvH0iwOHCPsBvFq9AoIUswNaZdb44zbE+All8QCrvm8AK2kk/ZEnSQN/kIsGL9CVBtLvdwIKUYkArB7i/vegMQHtDHsAN8zNA
lpc_rms=-26.72
sample=Cor_sustain_MF_F5.opus
</region>

<region>
hivel=127
key=G#3
loop_end=254388
loop_mode=loop_continuous
loop_start=82693
loop_xfade=20804
lovel=0
lpc=s6NcQklfE8M35SFDzt3ZwoEtI0JWozxBH/gWwdJ4C8FGAplBk/SUwWX8/8AulatBJFAkwbmwAEDRYhxBK1gQwe/qmsAykaJAjtS2wBLC8EC0IwTAKbSqv4uER0CwgQLA
lpc_rms=-17.78
sample=Cor_sustain_MF_G#3.opus
tune=-1
</region>

<region>
hivel=127
key=G#4
loop_end=269131
loop_mode=loop_continuous
loop_start=87485
loop_xfade=22010
lovel=0
lpc=3VTfQrb1i8NW9oVD+yQww7pq20JgZNjBKbYRQX3b7cABWoLBzEE1QQbLQ8EXL5BAXyQoQEa+3EGEMqzBfbP6wNaUokDAnFPBaIeGQWQlRsDXmxxB8971QLP7JcK+i8ZB
lpc_rms=-12.91
sample=Cor_sustain_MF_G#4.opus
tune=-1
</region>

<region>
hivel=127
key=G3
loop_end=265474
loop_mode=loop_continuous
loop_start=86297
loop_xfade=21711
lovel=0
lpc=pYcdQm3FzsIAId1Csx+TwmNZ8kGNLQxA8EUyQC8QlcHvtZxB8JgDwWAg5cAhV3dB5u0lwRVFkcDazFVBnvgmwTo3bkCMpWE/2vYfwGtVGUDnVpC+ScYgvzrcML4sjqc+
lpc_rms=-23.10
sample=Cor_sustain_MF_G3.opus
tune=-1
</region>

<region>
hivel=127
key=G4
loop_end=262467
loop_mode=loop_continuous
loop_start=85319
loop_xfade=21465
lovel=0
lpc=S5NlQiQzIsPH+j1DtTPrwj/lB0IlqFLAHOqlQaXACMJCks9BJvtRwC38BsGmrPXAqFKhQa8X8MBMAz7A6lcTQC9t378lwbBA+xDswPq9CEADT9dAMowxwYpYBkE/3xDA
lpc_rms=-17.73
sample=Cor_sustain_MF_G4.opus
tune=-3
</region>

<region>
hikey=C#6
hivel=127
lokey=G5
loop_end=244926
loop_mode=loop_continuous
loop_start=79617
loop_xfade=20030
lovel=0
lpc=xMEEQwUMe8P5KkxDC6qWwqgRoMHM9UVCdLC/wZup70E4W7TAkMflwO6WEsEy2IrADsANQtQHGMJVSyRC2hSZQJydqsEyHrRAMOU6QGVTRMAsqKLBqQ1gQgPzasHp9qHA
lpc_rms=-18.21
pitch_keycenter=G5
sample=Cor_sustain_MF_G5.opus
tune=+1
</region>
</group>

<group>
amp_veltrack=0
ampeg_attack=2
ampeg_release=0.35
group_label=FF
lpc_hicc1=127
lpc_locc1=85
volume=-3

<region>
hivel=127
key=A#3
loop_end=271409
loop_mode=loop_continuous
loop_start=88226
loop_xfade=22196
lovel=0
lpc=0e4hQg9S5MIrxgRDABq6wmb2K0LUyyPAnz4vwSJCV0FIdD7BX2uWQIN9fsACiAhAh6QLQKOS0r9ZNzhA8L88wEhAUb0PogXATONeQLBwxL71iOW/JWopQEJLkb89L6m+
lpc_rms=-16.46
sample=Cor_sustain_FF_A#3.opus
tune=-1
</region>

<region>
hivel=127
key=A#4
loop_end=271482
loop_mode=loop_continuous
loop_start=88249
loop_xfade=22202
lovel=0
lpc=2VCBQt3PRsOqhHFDSacXw6RyPEIdSFFBt+UiwYWxSsHxBefA4hsVQraFEsLQJkdB+kyaQa+NBcJPJalBSvkFQZWo/sGZy41B3haMQIfI7D/fsWbBUYbnQfaBB8IUZGJB
lpc_rms=-9.47
sample=Cor_sustain_FF_A#4.opus
tune=-1
</region>

<region>
hivel=127
key=A3
loop_end=271419
loop_mode=loop_continuous
loop_start=88229
loop_xfade=22197
lovel=0
lpc=buEnQr0Z5cInoANDohu2wsU0AULHaPhAftkxwIrrqsCBSAY/LeIeQWWkqsEocHdBXWTNwGE2fkDBCmW/MnaeQC0J7MDyEy9AA6yEP2LXDsCqSi1Aubu0wH0C3UDfMB/A
lpc_rms=-17.26
sample=Cor_sustain_FF_A3.opus
tune=-2
</region>

<region>
hivel=127
key=A4
loop_end=283744
loop_mode=loop_continuous
loop_start=92236
loop_xfade=23205
lovel=0
lpc=Up+BQnY+MMPqgTtDQ6jhwipGD0JwuvtAE6U0QZNYrMFz57jAswXqQVNYE8KJGGlB8r1BQaI7q8GvS55BhGEmwOMa0cDRX4vA6PBKQen45MAQM73A9GCLQVYZl8HFZwRB
lpc_rms=-13.72
offset=14087
sample=Cor_sustain_FF_A4.opus
tune=-2
</region>

<region>
hivel=127
key=B3
loop_end=269450
loop_mode=loop_continuous
loop_start=87589
loop_xfade=22036
lovel=0
lpc=X54RQuqizMK8tttCDyRlwuuVZEEoq/9ALG5/wQCrQEFvrafAhTKxv1RrJ0BP/4NAebTjwKb5G0CKXW0/tdtbvfvV/r7BlLe/cZjPQBdOHcEaEbpALdiHwJtC5kDgDXzA
lpc_rms=-16.64
sample=Cor_sustain_FF_B3.opus
</region>

<region>
hivel=127
key=B4
loop_end=280374
loop_mode=loop_continuous
loop_start=91140
loop_xfade=22930
lovel=0
lpc=D/ONQqPUUMN0DXpDwaoYw1rVy0GAY1BCQsBlwim170HJiOHALm6sPPificEnMA1CnNOuwQ5x2cAb2bNByzGYwdVdLEFOLmbBwSWUQVfNS8GjDfJANLbePzjaP8G2iu9A
lpc_rms=-13.02
offset=16781
sample=Cor_sustain_FF_B4.opus
</region>

<region>
hivel=127
key=C#4
loop_end=269298
loop_mode=loop_continuous
loop_start=87540
loop_xfade=22024
lovel=0
lpc=Rkm5QaTSccLRd19CEVuOwRNQwMDFyRRBvR4iwAtOJr6rSCTAKBvRP5yHM78O+uW/vk/LQHpobsCT7qi/KsIXQOtMKMB3/DY/8yEzQE5V079IBei/RX42QD0XJsC9g6M/
lpc_rms=-18.57
sample=Cor_sustain_FF_C#4.opus
</region>

<region>
hivel=127
key=C#5
loop_end=271198
loop_mode=loop_continuous
loop_start=88157
loop_xfade=22179
lovel=0
lpc=1PcjQgmu1MJkhdRCqPFHwrqQGL/uUalBJ9rFwAXwDcHHnTBBVaXYwG9OysDxf3dBpItawRId4D8vfOtAWu6bPn67H8FzohhBg1R+v3fy9j0FW7TAuwoBQak1K8HqAOBA
lpc_rms=-17.23
sample=Cor_sustain_FF_C#5.opus
</region>

<region>
hivel=127
key=C4
loop_end=270992
loop_mode=loop_continuous
loop_start=88090
loop_xfade=22162
lovel=0
lpc=r+E/QrCdEMNVaitDdaS8wjhwq0BsEiNCARAfwtWvK0G4YHxBVpm5wS1+eEHv2aa/JJ8fwWuOD0HEdfE+shRSwILOhD+VbTDAOQR5QP42A8CjmoW/3J5jQBgh2L9pHWK+
lpc_rms=-15.43
sample=Cor_sustain_FF_C4.opus
tune=-1
</region>

<region>
hivel=127
key=C5
loop_end=271864
loop_mode=loop_continuous
loop_start=88374
loop_xfade=22234
lovel=0
lpc=EhVJQi1OD8Phyy1DWr/Xwn2hP0B4llZCVMfUwco3YMFQnohBNm8ZQYSsD8JmFwZCDQsswZg4+sDwcvlAeg4oQc6im8GrmiBBC8q8QKV/UsFG2wNA7YEdQehhI8F3nZ9A
lpc_rms=-16.32
sample=Cor_sustain_FF_C5.opus
tune=-2
</region>

<region>
hivel=127
key=D#4
loop_end=265623
loop_mode=loop_continuous
loop_start=86345
loop_xfade=21723
lovel=0
lpc=Fo/XQY8phsLobXdCD7jFwQPnhb/taABBAVyiv5QercCoBBVB6SwIwfHX1D/1mxU/69mVQDLQpMDNeJ6+6asQQJgfHcDRyh1AoQDjv6Yr6j5b2YE/o8QHvknR1z7zG3i/
lpc_rms=-19.04
sample=Cor_sustain_FF_D#4.opus
</region>

<region>
hivel=127
key=D#5
loop_end=268506
loop_mode=loop_continuous
loop_start=87282
loop_xfade=21959
lovel=0
lpc=N0E0Qlds5sL6xP1C+QaKwsTAPMDKzNlBjcprQNSc8sHFuPtB4sQOwePvbMENypZB5qxBwa82PMDsQJRBvHt9wabsBkBsOklBsxn1wHsEkcCaP5JAkb6qP23xBsHtlwVB
lpc_rms=-16.72
sample=Cor_sustain_FF_D#5.opus
tune=-1
</region>

<region>
hivel=127
key=D4
loop_end=270649
loop_mode=loop_continuous
loop_start=87979
loop_xfade=22134
lovel=0
lpc=dFgUQnQfz8Lef9lCN95KwmvPEb4RFM1BL2HXwc+bUEEDeqi9Q1bhv7v6ncDBEJZAfucbQOzKf8BQAnW/dkbTQKvS+MBJJ4hA7YmEv5jgzb+s/BRAoKyFP5UEEsA0+hU/
lpc_rms=-15.02
sample=Cor_sustain_FF_D4.opus
tune=+2
</region>

<region>
hivel=127
key=D5
loop_end=263625
loop_mode=loop_continuous
loop_start=85695
loop_xfade=21560
lovel=0
lpc=DSZuQn2nGcOMiCVDoWyswvxdjMEvBo1CqjUwwuWx70CBRg5BBIPpP/pyz8HOiLlB4KfRvZcKoMEvPI1B2huKQNyWAsEuZXXAJiiZQV92ksFFu3A/8ZFLQdTPnsEPk1BB
lpc_rms=-15.68
sample=Cor_sustain_FF_D5.opus
</region>

<region>
hivel=127
key=E4
loop_end=261613
loop_mode=loop_continuous
loop_start=85042
loop_xfade=21395
lovel=0
lpc=id3gQf65mcKeWJ1CpUwawiNnzECi6FZBiqR4wQFo/0Bs49zAFhciQLkOLUALUWbAYp6bQLriHsC6ChjAj7jsQJKgJ8E1erdAPqjlP4YxF8CIRAjA0lQJQPNazD+K5bq/
lpc_rms=-18.00
sample=Cor_sustain_FF_E4.opus
</region>

<region>
hivel=127
key=E5
loop_end=257265
loop_mode=loop_continuous
loop_start=83628
loop_xfade=21040
lovel=0
lpc=MbEyQpk3xMKvibJCiHAXwgq/nMA0NJ5BXZGpwBObNMGDMJlBI+nWwOql8sAdj9ZAXJABQCuwB8EH3clAqpKxPwfY1UB8aU3BhRwEQbxghkBWoQvB1HqyQP/eD8GkiSJB
lpc_rms=-16.36
sample=Cor_sustain_FF_E5.opus
tune=-2
</region>

<region>
hikey=F#3
hivel=127
lokey=E3
loop_end=273977
loop_mode=loop_continuous
loop_start=89061
loop_xfade=22406
lovel=0
lpc=E91AQuLhCMO8ByVDHzkAw2w1hkJYk3vAP6PJwQBfBkK4IuTBaTGHQfxXGMEL08DA66M6QXjnD8HAzThBlMjhwKUotUD7s8TA9lR1P1dW3D9OBm8/oJE5wWxygEFw58rA
lpc_rms=-17.07
pitch_keycenter=F3
sample=Cor_sustain_FF_F#3.opus
</region>

<region>
hivel=127
key=F#4
loop_end=265545
loop_mode=loop_continuous
loop_start=86320
loop_xfade=21717
lovel=0
lpc=UGEIQg3WvsIcqN9C45OZwns9zUE4hqtAE3UiQXwKAsLVLelBdusPwczm1MAkjE0/q8cVQZCyL8GzlLxAVLHAQOqG/sBnVIo/dXnVv8QLzkByiSvBQmD+QGSPjj7KW82/
lpc_rms=-17.98
sample=Cor_sustain_FF_F#4.opus
</region>

<region>
hivel=127
key=F#5
loop_end=257793
loop_mode=loop_continuous
loop_start=83800
loop_xfade=21083
lovel=0
lpc=R1NtQnLW48L+2edCniOEwjJ0A0GX9plB1PwtwSc1BEGh23dAWUfRv9XXwUBYA0TBy3FuQWz2s8FMehBCplrIwWb9lUFe2oa/ThJ2PwO5M8FLkhVBlHyTQH5VLMEoaoNB
lpc_rms=-13.81
sample=Cor_sustain_FF_F#5.opus
tune=-2
</region>

<region>
hivel=127
key=F4
loop_end=269686
loop_mode=loop_continuous
loop_start=87666
loop_xfade=22055
lovel=0
lpc=SMjUQT2TmcKmzKtC4BkgwiiWqcDN2nxBddO5wP+vi79PQQxA2amcvzmICsAVbaxAK/k7wFuKrr/6KTE/97kmQD0DWcAI6VY/RbycPSbqCUDpPWnAGq2HQBQGQ8CODk8/
lpc_rms=-17.18
sample=Cor_sustain_FF_F4.opus
</region>

<region>
hivel=127
key=F5
loop_end=266488
loop_mode=loop_continuous
loop_start=86626
loop_xfade=21794
lovel=0
lpc=48IiQgtw1sL06OpClHs3wiug98Hag0pCm+WowY5u08AzxRVBoYPlP08SkT4niFbB9DimQaAmUMGGlqNA6Ed0P2lcTcA1qOHAmorHQbYQmcGERe3A3+rVQez0uMGKICZB
lpc_rms=-15.28
sample=Cor_sustain_FF_F5.opus
tune=-1
</region>

<region>
hivel=127
key=G#3
loop_end=270382
loop_mode=loop_continuous
loop_start=87892
loop_xfade=22112
lovel=0
lpc=srgFQoK9r8ItlbRCMJtEwsFsFUH9UB9BAXe7wPj+O0DXe3DAGl6fQP6vHcEu/QFBIIC8wPkx10BIAXE/PvbewDPzlED/r6y95Nx2wHCA/T+qpaK8T1DFv/P6oECjkEDA
lpc_rms=-18.20
sample=Cor_sustain_FF_G#3.opus
tune=-1
</region>

<region>
hivel=127
key=G#4
loop_end=274415
loop_mode=loop_continuous
loop_start=89203
loop_xfade=22442
lovel=0
lpc=q+FKQkAMBMM4QwNDgYSIwgjaekH/uedAXzq0v6gOEUAtRTfB1Ap0QVHVj8FMQidBp+tjv972l75LNzRB0TOPwQ4IfUDm3MtAil2mwPizCEBZnaG8pWdUPl+UIMAxrw9A
lpc_rms=-14.84
sample=Cor_sustain_FF_G#4.opus
</region>

<region>
hivel=127
key=G3
loop_end=272594
loop_mode=loop_continuous
loop_start=88611
loop_xfade=22293
lovel=0
lpc=laY+QnxBAMOjTQdDrHeewntg0EH5qapAxUOtwBl/CL+BhH1AniThwGAmkb+G7IxAxeKnQCyKRsGSXXBB3tlVwTJpO0HDujbBfym+QEab0r8HcKW/DDZxQNCWi79fHNW+
lpc_rms=-14.75
sample=Cor_sustain_FF_G3.opus
</region>

<region>
hivel=127
key=G4
loop_end=272475
loop_mode=loop_continuous
loop_start=88572
loop_xfade=22284
lovel=0
lpc=axAuQiev+cKT0g9DnAW0woFGAkJYZpK/nGbGwPPWsEAHnBrAK6HHvroF4b9PzwxB97tKwfktBEDfiE5BkKaJwYGzWUEDS9/AgAweQHDsTr+hv1zA0nkJQQpwAcH2vT1A
lpc_rms=-12.67
sample=Cor_sustain_FF_G4.opus
tune=-1
</region>

<region>
hikey=C#6
hivel=127
lokey=G5
loop_end=253452
loop_mode=loop_continuous
loop_start=82389
loop_xfade=20728
lovel=0
lpc=CckHQ4WMn8Pm1ahDrp8OwzBHlsIq3xZD3xsnwgh0lcIK45ZCqbBWQR6qaML4jERC68yYwCWyisEL2rdB6P+GwdLKhEGkXxVAM12gwSYiV0JEpmPC93f6QYQFML816LVA
lpc_rms=-10.06
pitch_keycenter=G5
sample=Cor_sustain_FF_G5.opus
tune=+1
</region>
</group>